<svg width="64" height="54" viewBox="0 0 64 54" fill="none" xmlns="http://www.w3.org/2000/svg">
<path fill-rule="evenodd" clip-rule="evenodd" d="M48 27.0428C48 25.9083 47.8961 24.8174 47.7032 23.7701H32.3265V29.9592H41.1132C40.7347 31.9592 39.5844 33.6537 37.8553 34.7883V38.8028H43.1317C46.2189 36.0174 48 31.9156 48 27.0428Z" fill="#4285F4"/>
<path fill-rule="evenodd" clip-rule="evenodd" d="M32.3265 42.6791C36.7347 42.6791 40.4304 41.2465 43.1317 38.8028L37.8553 34.7883C36.3933 35.7483 34.5232 36.3154 32.3265 36.3154C28.0742 36.3154 24.475 33.5009 23.1911 29.7191H17.7366V33.8645C20.423 39.0936 25.9444 42.6791 32.3265 42.6791Z" fill="#34A853"/>
<path fill-rule="evenodd" clip-rule="evenodd" d="M23.1911 29.7191C22.8646 28.7591 22.679 27.7337 22.679 26.6792C22.679 25.6247 22.8646 24.5992 23.1911 23.6392V19.4938H17.7366C16.6308 21.6538 16 24.0974 16 26.6792C16 29.261 16.6308 31.7045 17.7366 33.8645L23.1911 29.7191Z" fill="#FBBC05"/>
<path fill-rule="evenodd" clip-rule="evenodd" d="M32.3265 17.0428C34.7236 17.0428 36.8757 17.85 38.5677 19.4355L43.2505 14.8464C40.423 12.2646 36.7273 10.6791 32.3265 10.6791C25.9444 10.6791 20.423 14.2647 17.7366 19.4938L23.1911 23.6392C24.475 19.8574 28.0742 17.0428 32.3265 17.0428Z" fill="#EA4335"/>
</svg>
